<svg xmlns="http://www.w3.org/2000/svg" xmlns:xlink="http://www.w3.org/1999/xlink" width="1699" zoomAndPan="magnify" viewBox="0 0 1274.25 299.999988" height="400" preserveAspectRatio="xMidYMid meet" version="1.0"><defs><g/><clipPath id="4f5c69d9ba"><path d="M 0 0.0898438 L 1273.5 0.0898438 L 1273.5 299.910156 L 0 299.910156 Z M 0 0.0898438 " clip-rule="nonzero"/></clipPath><clipPath id="2a44ab2630"><path d="M 584 14 L 645 14 L 645 76 L 584 76 Z M 584 14 " clip-rule="nonzero"/></clipPath><clipPath id="64543575f7"><path d="M 501.671875 31.15625 L 708.480469 0.0820312 L 744.566406 240.242188 L 537.761719 271.316406 Z M 501.671875 31.15625 " clip-rule="nonzero"/></clipPath><clipPath id="d3cb69c7df"><path d="M 501.671875 31.15625 L 708.480469 0.0820312 L 744.566406 240.242188 L 537.761719 271.316406 Z M 501.671875 31.15625 " clip-rule="nonzero"/></clipPath><clipPath id="8c13f6fc2c"><path d="M 645 46 L 743 46 L 743 249 L 645 249 Z M 645 46 " clip-rule="nonzero"/></clipPath><clipPath id="08e24ef961"><path d="M 501.671875 31.15625 L 708.480469 0.0820312 L 744.566406 240.242188 L 537.761719 271.316406 Z M 501.671875 31.15625 " clip-rule="nonzero"/></clipPath><clipPath id="7833b74c47"><path d="M 501.671875 31.15625 L 708.480469 0.0820312 L 744.566406 240.242188 L 537.761719 271.316406 Z M 501.671875 31.15625 " clip-rule="nonzero"/></clipPath><clipPath id="7d130be1c9"><path d="M 523 50 L 689 50 L 689 272 L 523 272 Z M 523 50 " clip-rule="nonzero"/></clipPath><clipPath id="cd978e6088"><path d="M 501.671875 31.15625 L 708.480469 0.0820312 L 744.566406 240.242188 L 537.761719 271.316406 Z M 501.671875 31.15625 " clip-rule="nonzero"/></clipPath><clipPath id="c41fbbb71a"><path d="M 501.671875 31.15625 L 708.480469 0.0820312 L 744.566406 240.242188 L 537.761719 271.316406 Z M 501.671875 31.15625 " clip-rule="nonzero"/></clipPath><clipPath id="66337dcb43"><path d="M 556 66 L 575 66 L 575 86 L 556 86 Z M 556 66 " clip-rule="nonzero"/></clipPath><clipPath id="5e028873d5"><path d="M 501.671875 31.15625 L 708.480469 0.0820312 L 744.566406 240.242188 L 537.761719 271.316406 Z M 501.671875 31.15625 " clip-rule="nonzero"/></clipPath><clipPath id="3a12455af5"><path d="M 501.671875 31.15625 L 708.480469 0.0820312 L 744.566406 240.242188 L 537.761719 271.316406 Z M 501.671875 31.15625 " clip-rule="nonzero"/></clipPath><clipPath id="70d713021b"><path d="M 607 58 L 626 58 L 626 78 L 607 78 Z M 607 58 " clip-rule="nonzero"/></clipPath><clipPath id="0e488d499b"><path d="M 501.671875 31.15625 L 708.480469 0.0820312 L 744.566406 240.242188 L 537.761719 271.316406 Z M 501.671875 31.15625 " clip-rule="nonzero"/></clipPath><clipPath id="ae383008e9"><path d="M 501.671875 31.15625 L 708.480469 0.0820312 L 744.566406 240.242188 L 537.761719 271.316406 Z M 501.671875 31.15625 " clip-rule="nonzero"/></clipPath><clipPath id="3685fec78d"><path d="M 558 18 L 619 18 L 619 79 L 558 79 Z M 558 18 " clip-rule="nonzero"/></clipPath><clipPath id="e35614ae29"><path d="M 501.671875 31.15625 L 708.480469 0.0820312 L 744.566406 240.242188 L 537.761719 271.316406 Z M 501.671875 31.15625 " clip-rule="nonzero"/></clipPath><clipPath id="46301c07f2"><path d="M 501.671875 31.15625 L 708.480469 0.0820312 L 744.566406 240.242188 L 537.761719 271.316406 Z M 501.671875 31.15625 " clip-rule="nonzero"/></clipPath><clipPath id="11b31be753"><path d="M 501.671875 171 L 519.664062 171 L 519.664062 191.472656 L 501.671875 191.472656 Z M 501.671875 171 " clip-rule="nonzero"/></clipPath></defs><g clip-path="url(#4f5c69d9ba)"><path fill="#ffffff" d="M 0 0.0898438 L 1273.5 0.0898438 L 1273.5 299.910156 L 0 299.910156 Z M 0 0.0898438 " fill-opacity="1" fill-rule="nonzero"/><path fill="#004aad" d="M 0 0.0898438 L 1273.5 0.0898438 L 1273.5 299.910156 L 0 299.910156 Z M 0 0.0898438 " fill-opacity="1" fill-rule="nonzero"/></g><g clip-path="url(#2a44ab2630)"><g clip-path="url(#64543575f7)"><g clip-path="url(#d3cb69c7df)"><path fill="#d9d9d9" d="M 594.746094 71.554688 L 590.804688 45.324219 C 589.949219 39.554688 591.578125 33.984375 594.96875 29.570312 C 598.363281 25.171875 603.492188 21.972656 609.59375 21.054688 C 615.699219 20.136719 621.539062 21.6875 626.085938 24.894531 C 630.625 28.117188 633.820312 32.960938 634.6875 38.730469 L 638.628906 64.960938 C 638.878906 66.613281 640.417969 67.742188 642.0625 67.496094 C 643.714844 67.246094 644.84375 65.71875 644.597656 64.0625 L 640.65625 37.832031 C 639.542969 30.359375 635.355469 24.0625 629.566406 19.972656 C 623.789062 15.871094 616.367188 13.921875 608.695312 15.074219 C 601.039062 16.226562 594.5 20.273438 590.183594 25.890625 C 585.851562 31.5 583.714844 38.75 584.835938 46.222656 L 588.777344 72.453125 C 589.027344 74.105469 590.570312 75.234375 592.210938 74.988281 C 593.863281 74.738281 595.007812 73.207031 594.757812 71.554688 " fill-opacity="1" fill-rule="nonzero"/></g></g></g><g clip-path="url(#8c13f6fc2c)"><g clip-path="url(#08e24ef961)"><g clip-path="url(#7833b74c47)"><path fill="#000000" d="M 742.875 231.414062 L 720.375 234.792969 L 688.851562 248.875 L 645.6875 50.003906 L 671.65625 46.105469 L 742.875 231.414062 " fill-opacity="1" fill-rule="nonzero"/></g></g></g><g clip-path="url(#7d130be1c9)"><g clip-path="url(#cd978e6088)"><g clip-path="url(#c41fbbb71a)"><path fill="#545454" d="M 688.851562 248.875 L 538.230469 271.507812 L 523.632812 68.34375 L 645.6875 50.003906 L 688.851562 248.875 " fill-opacity="1" fill-rule="nonzero"/></g></g></g><g clip-path="url(#66337dcb43)"><g clip-path="url(#5e028873d5)"><g clip-path="url(#3a12455af5)"><path fill="#000000" d="M 574.691406 74.464844 C 575.453125 79.550781 571.945312 84.285156 566.859375 85.050781 C 561.777344 85.8125 557.03125 82.320312 556.265625 77.234375 C 555.503906 72.152344 559.011719 67.402344 564.09375 66.640625 C 569.179688 65.875 573.925781 69.382812 574.691406 74.464844 " fill-opacity="1" fill-rule="nonzero"/></g></g></g><g clip-path="url(#70d713021b)"><g clip-path="url(#0e488d499b)"><g clip-path="url(#ae383008e9)"><path fill="#000000" d="M 625.882812 66.773438 C 626.648438 71.859375 623.140625 76.59375 618.054688 77.359375 C 612.96875 78.121094 608.222656 74.628906 607.460938 69.542969 C 606.695312 64.457031 610.203125 59.710938 615.289062 58.945312 C 620.371094 58.183594 625.121094 61.691406 625.882812 66.773438 " fill-opacity="1" fill-rule="nonzero"/></g></g></g><g clip-path="url(#3685fec78d)"><g clip-path="url(#e35614ae29)"><g clip-path="url(#46301c07f2)"><path fill="#ffffff" d="M 568.476562 75.5 L 564.535156 49.269531 C 563.679688 43.5 565.308594 37.929688 568.703125 33.515625 C 572.097656 29.117188 577.234375 25.917969 583.339844 25 C 589.429688 24.085938 595.28125 25.632812 599.820312 28.84375 C 604.359375 32.0625 607.550781 36.910156 608.417969 42.675781 L 612.359375 68.90625 C 612.609375 70.5625 614.152344 71.691406 615.792969 71.441406 C 617.445312 71.195312 618.578125 69.664062 618.328125 68.011719 L 614.386719 41.78125 C 613.277344 34.308594 609.089844 28.007812 603.3125 23.917969 C 597.523438 19.816406 590.097656 17.871094 582.441406 19.019531 C 574.769531 20.171875 568.246094 24.21875 563.917969 29.839844 C 559.597656 35.445312 557.445312 42.695312 558.570312 50.167969 L 562.511719 76.398438 C 562.757812 78.050781 564.300781 79.179688 565.941406 78.933594 C 567.59375 78.683594 568.726562 77.15625 568.476562 75.5 " fill-opacity="1" fill-rule="nonzero"/></g></g></g><g fill="#ffffff" fill-opacity="1"><g transform="translate(264.98578, 145.45399)"><g><path d="M 51.34375 -30.8125 C 54.71875 -29.632812 57.359375 -27.789062 59.265625 -25.28125 C 61.179688 -22.78125 62.140625 -19.757812 62.140625 -16.21875 C 62.140625 -11.03125 60.054688 -7.03125 55.890625 -4.21875 C 51.734375 -1.40625 45.710938 0 37.828125 0 L 5.90625 0 L 5.90625 -59.109375 L 36.140625 -59.109375 C 43.679688 -59.109375 49.421875 -57.710938 53.359375 -54.921875 C 57.304688 -52.140625 59.28125 -48.382812 59.28125 -43.65625 C 59.28125 -40.84375 58.585938 -38.320312 57.203125 -36.09375 C 55.828125 -33.875 53.875 -32.113281 51.34375 -30.8125 Z M 22.453125 -47.03125 L 22.453125 -35.625 L 33.9375 -35.625 C 39.570312 -35.625 42.390625 -37.539062 42.390625 -41.375 C 42.390625 -45.144531 39.570312 -47.03125 33.9375 -47.03125 Z M 36.484375 -12.078125 C 42.335938 -12.078125 45.265625 -14.070312 45.265625 -18.0625 C 45.265625 -22.0625 42.335938 -24.0625 36.484375 -24.0625 L 22.453125 -24.0625 L 22.453125 -12.078125 Z M 36.484375 -12.078125 "/></g></g></g><g fill="#ffffff" fill-opacity="1"><g transform="translate(320.962819, 145.45399)"><g><path d="M 5.90625 -59.109375 L 22.625 -59.109375 L 22.625 -13.25 L 50.828125 -13.25 L 50.828125 0 L 5.90625 0 Z M 5.90625 -59.109375 "/></g></g></g><g fill="#ffffff" fill-opacity="1"><g transform="translate(363.515281, 145.45399)"><g><path d="M 45.515625 -11.484375 L 20.515625 -11.484375 L 15.875 0 L -1.1875 0 L 24.90625 -59.109375 L 41.375 -59.109375 L 67.546875 0 L 50.15625 0 Z M 40.609375 -23.8125 L 33.015625 -42.71875 L 25.421875 -23.8125 Z M 40.609375 -23.8125 "/></g></g></g><g fill="#ffffff" fill-opacity="1"><g transform="translate(420.92766, 145.45399)"><g><path d="M 35.375 1.1875 C 29.1875 1.1875 23.628906 -0.117188 18.703125 -2.734375 C 13.773438 -5.359375 9.90625 -9.003906 7.09375 -13.671875 C 4.28125 -18.347656 2.875 -23.640625 2.875 -29.546875 C 2.875 -35.460938 4.28125 -40.753906 7.09375 -45.421875 C 9.90625 -50.097656 13.773438 -53.742188 18.703125 -56.359375 C 23.628906 -58.972656 29.1875 -60.28125 35.375 -60.28125 C 40.78125 -60.28125 45.648438 -59.320312 49.984375 -57.40625 C 54.316406 -55.5 57.921875 -52.742188 60.796875 -49.140625 L 50.15625 -39.515625 C 46.332031 -44.128906 41.6875 -46.4375 36.21875 -46.4375 C 33.007812 -46.4375 30.148438 -45.734375 27.640625 -44.328125 C 25.140625 -42.921875 23.203125 -40.9375 21.828125 -38.375 C 20.453125 -35.8125 19.765625 -32.867188 19.765625 -29.546875 C 19.765625 -26.234375 20.453125 -23.296875 21.828125 -20.734375 C 23.203125 -18.171875 25.140625 -16.1875 27.640625 -14.78125 C 30.148438 -13.375 33.007812 -12.671875 36.21875 -12.671875 C 41.6875 -12.671875 46.332031 -14.976562 50.15625 -19.59375 L 60.796875 -9.96875 C 57.921875 -6.363281 54.316406 -3.601562 49.984375 -1.6875 C 45.648438 0.226562 40.78125 1.1875 35.375 1.1875 Z M 35.375 1.1875 "/></g></g></g><g fill="#ffffff" fill-opacity="1"><g transform="translate(474.287336, 145.45399)"><g><path d="M 28.703125 -21.453125 L 22.453125 -14.78125 L 22.453125 0 L 5.90625 0 L 5.90625 -59.109375 L 22.453125 -59.109375 L 22.453125 -34.53125 L 45.34375 -59.109375 L 63.75 -59.109375 L 39.59375 -32.9375 L 65.015625 0 L 45.59375 0 Z M 28.703125 -21.453125 "/></g></g></g><g fill="#ffffff" fill-opacity="1"><g transform="translate(298.35447, 214.293176)"><g><path d="M 22.625 -46.1875 L 22.625 -33.1875 L 48.71875 -33.1875 L 48.71875 -20.265625 L 22.625 -20.265625 L 22.625 0 L 5.90625 0 L 5.90625 -59.109375 L 52.265625 -59.109375 L 52.265625 -46.1875 Z M 22.625 -46.1875 "/></g></g></g><g fill="#ffffff" fill-opacity="1"><g transform="translate(343.60873, 214.293176)"><g><path d="M 31.75 -15.703125 L 22.625 -15.703125 L 22.625 0 L 5.90625 0 L 5.90625 -59.109375 L 32.9375 -59.109375 C 38.28125 -59.109375 42.921875 -58.21875 46.859375 -56.4375 C 50.804688 -54.664062 53.847656 -52.132812 55.984375 -48.84375 C 58.117188 -45.550781 59.1875 -41.679688 59.1875 -37.234375 C 59.1875 -32.953125 58.1875 -29.222656 56.1875 -26.046875 C 54.195312 -22.867188 51.34375 -20.378906 47.625 -18.578125 L 60.375 0 L 42.46875 0 Z M 42.296875 -37.234375 C 42.296875 -39.992188 41.421875 -42.132812 39.671875 -43.65625 C 37.929688 -45.175781 35.347656 -45.9375 31.921875 -45.9375 L 22.625 -45.9375 L 22.625 -28.625 L 31.921875 -28.625 C 35.347656 -28.625 37.929688 -29.367188 39.671875 -30.859375 C 41.421875 -32.347656 42.296875 -34.472656 42.296875 -37.234375 Z M 42.296875 -37.234375 "/></g></g></g><g fill="#ffffff" fill-opacity="1"><g transform="translate(397.137256, 214.293176)"><g><path d="M 5.90625 -59.109375 L 22.625 -59.109375 L 22.625 0 L 5.90625 0 Z M 5.90625 -59.109375 "/></g></g></g><g fill="#ffffff" fill-opacity="1"><g transform="translate(416.808836, 214.293176)"><g><path d="M 5.90625 -59.109375 L 33.859375 -59.109375 C 40.328125 -59.109375 46.066406 -57.894531 51.078125 -55.46875 C 56.085938 -53.050781 59.972656 -49.617188 62.734375 -45.171875 C 65.492188 -40.722656 66.875 -35.515625 66.875 -29.546875 C 66.875 -23.585938 65.492188 -18.382812 62.734375 -13.9375 C 59.972656 -9.488281 56.085938 -6.050781 51.078125 -3.625 C 46.066406 -1.207031 40.328125 0 33.859375 0 L 5.90625 0 Z M 33.1875 -13.34375 C 38.25 -13.34375 42.3125 -14.773438 45.375 -17.640625 C 48.445312 -20.515625 49.984375 -24.484375 49.984375 -29.546875 C 49.984375 -34.617188 48.445312 -38.585938 45.375 -41.453125 C 42.3125 -44.328125 38.25 -45.765625 33.1875 -45.765625 L 22.625 -45.765625 L 22.625 -13.34375 Z M 33.1875 -13.34375 "/></g></g></g><g fill="#ffffff" fill-opacity="1"><g transform="translate(477.598457, 214.293176)"><g><path d="M 45.515625 -11.484375 L 20.515625 -11.484375 L 15.875 0 L -1.1875 0 L 24.90625 -59.109375 L 41.375 -59.109375 L 67.546875 0 L 50.15625 0 Z M 40.609375 -23.8125 L 33.015625 -42.71875 L 25.421875 -23.8125 Z M 40.609375 -23.8125 "/></g></g></g><g fill="#ffffff" fill-opacity="1"><g transform="translate(535.010836, 214.293176)"><g><path d="M 37.578125 -21.1875 L 37.578125 0 L 20.859375 0 L 20.859375 -21.453125 L -1.6875 -59.109375 L 15.953125 -59.109375 L 29.96875 -35.625 L 43.984375 -59.109375 L 60.203125 -59.109375 Z M 37.578125 -21.1875 "/></g></g></g><g fill="#ffffff" fill-opacity="1"><g transform="translate(748.010917, 112.01116)"><g><path d="M 13.75 0 L 11.46875 0 L 4.125 -9.875 L 4.125 0 L 1.8125 0 L 1.8125 -13.765625 L 4.09375 -13.765625 L 11.46875 -3.875 L 11.46875 -13.765625 L 13.75 -13.765625 Z M 13.75 0 "/></g></g></g><g fill="#ffffff" fill-opacity="1"><g transform="translate(762.244506, 112.01116)"><g><path d="M 1.84375 -14.4375 C 2.09375 -14.695312 2.40625 -14.828125 2.78125 -14.828125 C 3.164062 -14.828125 3.484375 -14.695312 3.734375 -14.4375 C 3.984375 -14.1875 4.109375 -13.859375 4.109375 -13.453125 C 4.109375 -13.054688 3.984375 -12.726562 3.734375 -12.46875 C 3.484375 -12.21875 3.164062 -12.09375 2.78125 -12.09375 C 2.40625 -12.09375 2.09375 -12.21875 1.84375 -12.46875 C 1.59375 -12.726562 1.46875 -13.054688 1.46875 -13.453125 C 1.46875 -13.859375 1.59375 -14.1875 1.84375 -14.4375 Z M 3.921875 0 L 1.671875 0 L 1.671875 -10.46875 L 3.921875 -10.46875 Z M 3.921875 0 "/></g></g></g><g fill="#ffffff" fill-opacity="1"><g transform="translate(766.490538, 112.01116)"><g><path d="M 5.796875 -4.796875 L 4.03125 -2.9375 L 4.03125 0 L 1.765625 0 L 1.765625 -14.59375 L 4.03125 -14.59375 L 4.03125 -5.78125 L 8.65625 -10.46875 L 11.25 -10.46875 L 7.375 -6.40625 L 11.546875 0 L 8.875 0 Z M 5.796875 -4.796875 "/></g></g></g><g fill="#ffffff" fill-opacity="1"><g transform="translate(776.851007, 112.01116)"><g><path d="M 15.328125 -10.546875 C 16.515625 -10.546875 17.445312 -10.179688 18.125 -9.453125 C 18.8125 -8.734375 19.15625 -7.753906 19.15625 -6.515625 L 19.15625 0 L 16.890625 0 L 16.890625 -5.875 C 16.890625 -6.675781 16.671875 -7.300781 16.234375 -7.75 C 15.796875 -8.207031 15.191406 -8.4375 14.421875 -8.4375 C 13.535156 -8.414062 12.832031 -8.097656 12.3125 -7.484375 C 11.800781 -6.878906 11.546875 -6.109375 11.546875 -5.171875 L 11.546875 0 L 9.28125 0 L 9.28125 -5.875 C 9.28125 -6.675781 9.0625 -7.300781 8.625 -7.75 C 8.1875 -8.207031 7.585938 -8.4375 6.828125 -8.4375 C 5.929688 -8.414062 5.222656 -8.097656 4.703125 -7.484375 C 4.179688 -6.878906 3.921875 -6.109375 3.921875 -5.171875 L 3.921875 0 L 1.671875 0 L 1.671875 -10.46875 L 3.921875 -10.46875 L 3.921875 -8.4375 C 4.609375 -9.84375 5.875 -10.546875 7.71875 -10.546875 C 8.644531 -10.546875 9.421875 -10.320312 10.046875 -9.875 C 10.671875 -9.4375 11.101562 -8.820312 11.34375 -8.03125 C 11.988281 -9.707031 13.316406 -10.546875 15.328125 -10.546875 Z M 15.328125 -10.546875 "/></g></g></g><g fill="#ffffff" fill-opacity="1"><g transform="translate(796.019398, 112.01116)"><g><path d="M 7.953125 0 L 7.953125 -1.28125 C 7.203125 -0.363281 6.046875 0.09375 4.484375 0.09375 C 3.367188 0.09375 2.476562 -0.207031 1.8125 -0.8125 C 1.144531 -1.425781 0.8125 -2.203125 0.8125 -3.140625 C 0.8125 -4.097656 1.15625 -4.859375 1.84375 -5.421875 C 2.539062 -5.992188 3.515625 -6.285156 4.765625 -6.296875 L 7.921875 -6.296875 L 7.921875 -6.609375 C 7.921875 -7.273438 7.707031 -7.789062 7.28125 -8.15625 C 6.863281 -8.53125 6.242188 -8.71875 5.421875 -8.71875 C 4.421875 -8.71875 3.394531 -8.363281 2.34375 -7.65625 L 1.421875 -9.21875 C 2.210938 -9.695312 2.925781 -10.035156 3.5625 -10.234375 C 4.207031 -10.441406 4.992188 -10.546875 5.921875 -10.546875 C 7.253906 -10.546875 8.285156 -10.21875 9.015625 -9.5625 C 9.753906 -8.914062 10.132812 -8.015625 10.15625 -6.859375 L 10.171875 0 Z M 4.953125 -1.6875 C 5.753906 -1.6875 6.429688 -1.875 6.984375 -2.25 C 7.546875 -2.625 7.859375 -3.097656 7.921875 -3.671875 L 7.921875 -4.640625 L 5.09375 -4.640625 C 4.34375 -4.640625 3.796875 -4.53125 3.453125 -4.3125 C 3.109375 -4.101562 2.9375 -3.75 2.9375 -3.25 C 2.9375 -2.769531 3.113281 -2.390625 3.46875 -2.109375 C 3.832031 -1.828125 4.328125 -1.6875 4.953125 -1.6875 Z M 4.953125 -1.6875 "/></g></g></g><g fill="#ffffff" fill-opacity="1"><g transform="translate(806.202923, 112.01116)"><g><path d="M 7.015625 -2.40625 L 7.59375 -0.671875 C 6.726562 -0.160156 5.867188 0.09375 5.015625 0.09375 C 4.160156 0.09375 3.457031 -0.160156 2.90625 -0.671875 C 2.351562 -1.179688 2.078125 -1.941406 2.078125 -2.953125 L 2.078125 -8.375 L 0.609375 -8.375 L 0.609375 -10.078125 L 2.078125 -10.078125 L 2.078125 -12.9375 L 4.328125 -12.9375 L 4.328125 -10.078125 L 7.421875 -10.078125 L 7.421875 -8.375 L 4.328125 -8.375 L 4.328125 -3.359375 C 4.328125 -2.835938 4.414062 -2.472656 4.59375 -2.265625 C 4.78125 -2.054688 5.066406 -1.953125 5.453125 -1.953125 C 5.867188 -1.953125 6.390625 -2.101562 7.015625 -2.40625 Z M 7.015625 -2.40625 "/></g></g></g><g fill="#ffffff" fill-opacity="1"><g transform="translate(812.86721, 112.01116)"><g><path d="M 1.84375 -14.4375 C 2.09375 -14.695312 2.40625 -14.828125 2.78125 -14.828125 C 3.164062 -14.828125 3.484375 -14.695312 3.734375 -14.4375 C 3.984375 -14.1875 4.109375 -13.859375 4.109375 -13.453125 C 4.109375 -13.054688 3.984375 -12.726562 3.734375 -12.46875 C 3.484375 -12.21875 3.164062 -12.09375 2.78125 -12.09375 C 2.40625 -12.09375 2.09375 -12.21875 1.84375 -12.46875 C 1.59375 -12.726562 1.46875 -13.054688 1.46875 -13.453125 C 1.46875 -13.859375 1.59375 -14.1875 1.84375 -14.4375 Z M 3.921875 0 L 1.671875 0 L 1.671875 -10.46875 L 3.921875 -10.46875 Z M 3.921875 0 "/></g></g></g><g fill="#ffffff" fill-opacity="1"><g transform="translate(817.113245, 112.01116)"><g/></g></g><g fill="#ffffff" fill-opacity="1"><g transform="translate(820.848112, 112.01116)"><g><path d="M 1.8125 -13.765625 L 7.453125 -13.765625 C 9.515625 -13.765625 11.21875 -13.113281 12.5625 -11.8125 C 13.90625 -10.519531 14.578125 -8.875 14.578125 -6.875 C 14.578125 -4.882812 13.898438 -3.238281 12.546875 -1.9375 C 11.203125 -0.644531 9.484375 0 7.390625 0 L 1.8125 0 Z M 4.125 -11.6875 L 4.125 -2.078125 L 7.515625 -2.078125 C 8.867188 -2.078125 9.992188 -2.523438 10.890625 -3.421875 C 11.785156 -4.328125 12.234375 -5.472656 12.234375 -6.859375 C 12.234375 -8.253906 11.769531 -9.40625 10.84375 -10.3125 C 9.925781 -11.226562 8.785156 -11.6875 7.421875 -11.6875 Z M 4.125 -11.6875 "/></g></g></g><g fill="#ffffff" fill-opacity="1"><g transform="translate(834.747473, 112.01116)"><g><path d="M 1.84375 -14.4375 C 2.09375 -14.695312 2.40625 -14.828125 2.78125 -14.828125 C 3.164062 -14.828125 3.484375 -14.695312 3.734375 -14.4375 C 3.984375 -14.1875 4.109375 -13.859375 4.109375 -13.453125 C 4.109375 -13.054688 3.984375 -12.726562 3.734375 -12.46875 C 3.484375 -12.21875 3.164062 -12.09375 2.78125 -12.09375 C 2.40625 -12.09375 2.09375 -12.21875 1.84375 -12.46875 C 1.59375 -12.726562 1.46875 -13.054688 1.46875 -13.453125 C 1.46875 -13.859375 1.59375 -14.1875 1.84375 -14.4375 Z M 3.921875 0 L 1.671875 0 L 1.671875 -10.46875 L 3.921875 -10.46875 Z M 3.921875 0 "/></g></g></g><g fill="#ffffff" fill-opacity="1"><g transform="translate(838.993508, 112.01116)"><g><path d="M 4.796875 -10.5625 C 6.242188 -10.5625 7.460938 -10.207031 8.453125 -9.5 L 7.625 -7.828125 C 6.632812 -8.441406 5.632812 -8.75 4.625 -8.75 C 3.601562 -8.75 3.09375 -8.40625 3.09375 -7.71875 C 3.09375 -7.375 3.28125 -7.085938 3.65625 -6.859375 C 4.039062 -6.640625 4.503906 -6.453125 5.046875 -6.296875 C 5.585938 -6.148438 6.128906 -5.972656 6.671875 -5.765625 C 7.222656 -5.566406 7.6875 -5.238281 8.0625 -4.78125 C 8.445312 -4.320312 8.640625 -3.738281 8.640625 -3.03125 C 8.640625 -2.019531 8.253906 -1.25 7.484375 -0.71875 C 6.710938 -0.1875 5.757812 0.078125 4.625 0.078125 C 3.832031 0.078125 3.0625 -0.046875 2.3125 -0.296875 C 1.5625 -0.554688 0.925781 -0.914062 0.40625 -1.375 L 1.21875 -2.984375 C 1.664062 -2.597656 2.210938 -2.285156 2.859375 -2.046875 C 3.515625 -1.804688 4.132812 -1.6875 4.71875 -1.6875 C 5.226562 -1.6875 5.640625 -1.78125 5.953125 -1.96875 C 6.273438 -2.15625 6.4375 -2.4375 6.4375 -2.8125 C 6.4375 -3.207031 6.242188 -3.519531 5.859375 -3.75 C 5.484375 -3.988281 5.023438 -4.179688 4.484375 -4.328125 C 3.941406 -4.472656 3.398438 -4.644531 2.859375 -4.84375 C 2.328125 -5.039062 1.875 -5.363281 1.5 -5.8125 C 1.125 -6.257812 0.9375 -6.832031 0.9375 -7.53125 C 0.9375 -8.53125 1.304688 -9.285156 2.046875 -9.796875 C 2.796875 -10.304688 3.710938 -10.5625 4.796875 -10.5625 Z M 4.796875 -10.5625 "/></g></g></g><g fill="#ffffff" fill-opacity="1"><g transform="translate(846.896408, 112.01116)"><g><path d="M 5.796875 -4.796875 L 4.03125 -2.9375 L 4.03125 0 L 1.765625 0 L 1.765625 -14.59375 L 4.03125 -14.59375 L 4.03125 -5.78125 L 8.65625 -10.46875 L 11.25 -10.46875 L 7.375 -6.40625 L 11.546875 0 L 8.875 0 Z M 5.796875 -4.796875 "/></g></g></g><g fill="#ffffff" fill-opacity="1"><g transform="translate(857.256878, 112.01116)"><g><path d="M 6.15625 -10.546875 C 7.769531 -10.546875 9.082031 -10.054688 10.09375 -9.078125 C 11.101562 -8.097656 11.609375 -6.816406 11.609375 -5.234375 C 11.609375 -3.660156 11.101562 -2.378906 10.09375 -1.390625 C 9.082031 -0.410156 7.769531 0.078125 6.15625 0.078125 C 4.53125 0.078125 3.210938 -0.410156 2.203125 -1.390625 C 1.191406 -2.378906 0.6875 -3.660156 0.6875 -5.234375 C 0.6875 -6.816406 1.191406 -8.097656 2.203125 -9.078125 C 3.210938 -10.054688 4.53125 -10.546875 6.15625 -10.546875 Z M 6.15625 -8.59375 C 5.207031 -8.59375 4.4375 -8.273438 3.84375 -7.640625 C 3.25 -7.015625 2.953125 -6.207031 2.953125 -5.21875 C 2.953125 -4.207031 3.25 -3.382812 3.84375 -2.75 C 4.4375 -2.125 5.207031 -1.8125 6.15625 -1.8125 C 7.101562 -1.8125 7.867188 -2.125 8.453125 -2.75 C 9.046875 -3.382812 9.34375 -4.207031 9.34375 -5.21875 C 9.34375 -6.207031 9.039062 -7.015625 8.4375 -7.640625 C 7.84375 -8.273438 7.082031 -8.59375 6.15625 -8.59375 Z M 6.15625 -8.59375 "/></g></g></g><g fill="#ffffff" fill-opacity="1"><g transform="translate(868.207165, 112.01116)"><g><path d="M 7.796875 -10.546875 C 9.015625 -10.546875 9.96875 -10.1875 10.65625 -9.46875 C 11.34375 -8.757812 11.6875 -7.773438 11.6875 -6.515625 L 11.6875 0 L 9.421875 0 L 9.421875 -5.875 C 9.421875 -6.664062 9.195312 -7.285156 8.75 -7.734375 C 8.300781 -8.191406 7.6875 -8.421875 6.90625 -8.421875 C 6.0625 -8.410156 5.375 -8.140625 4.84375 -7.609375 C 4.3125 -7.085938 4.007812 -6.40625 3.9375 -5.5625 L 3.9375 0 L 1.671875 0 L 1.671875 -10.46875 L 3.9375 -10.46875 L 3.9375 -8.453125 C 4.644531 -9.847656 5.929688 -10.546875 7.796875 -10.546875 Z M 7.796875 -10.546875 "/></g></g></g><g fill="#ffffff" fill-opacity="1"><g transform="translate(879.904543, 112.01116)"><g/></g></g><g fill="#ffffff" fill-opacity="1"><g transform="translate(883.639403, 112.01116)"><g><path d="M 11.21875 -11.6875 L 6.84375 -11.6875 L 6.84375 0 L 4.53125 0 L 4.53125 -11.6875 L 0.171875 -11.6875 L 0.171875 -13.765625 L 11.21875 -13.765625 Z M 11.21875 -11.6875 "/></g></g></g><g fill="#ffffff" fill-opacity="1"><g transform="translate(893.685291, 112.01116)"><g><path d="M 7.953125 0 L 7.953125 -1.28125 C 7.203125 -0.363281 6.046875 0.09375 4.484375 0.09375 C 3.367188 0.09375 2.476562 -0.207031 1.8125 -0.8125 C 1.144531 -1.425781 0.8125 -2.203125 0.8125 -3.140625 C 0.8125 -4.097656 1.15625 -4.859375 1.84375 -5.421875 C 2.539062 -5.992188 3.515625 -6.285156 4.765625 -6.296875 L 7.921875 -6.296875 L 7.921875 -6.609375 C 7.921875 -7.273438 7.707031 -7.789062 7.28125 -8.15625 C 6.863281 -8.53125 6.242188 -8.71875 5.421875 -8.71875 C 4.421875 -8.71875 3.394531 -8.363281 2.34375 -7.65625 L 1.421875 -9.21875 C 2.210938 -9.695312 2.925781 -10.035156 3.5625 -10.234375 C 4.207031 -10.441406 4.992188 -10.546875 5.921875 -10.546875 C 7.253906 -10.546875 8.285156 -10.21875 9.015625 -9.5625 C 9.753906 -8.914062 10.132812 -8.015625 10.15625 -6.859375 L 10.171875 0 Z M 4.953125 -1.6875 C 5.753906 -1.6875 6.429688 -1.875 6.984375 -2.25 C 7.546875 -2.625 7.859375 -3.097656 7.921875 -3.671875 L 7.921875 -4.640625 L 5.09375 -4.640625 C 4.34375 -4.640625 3.796875 -4.53125 3.453125 -4.3125 C 3.109375 -4.101562 2.9375 -3.75 2.9375 -3.25 C 2.9375 -2.769531 3.113281 -2.390625 3.46875 -2.109375 C 3.832031 -1.828125 4.328125 -1.6875 4.953125 -1.6875 Z M 4.953125 -1.6875 "/></g></g></g><g fill="#ffffff" fill-opacity="1"><g transform="translate(903.868815, 112.01116)"><g><path d="M 7.796875 -10.546875 C 9.015625 -10.546875 9.96875 -10.1875 10.65625 -9.46875 C 11.34375 -8.757812 11.6875 -7.773438 11.6875 -6.515625 L 11.6875 0 L 9.421875 0 L 9.421875 -5.875 C 9.421875 -6.664062 9.195312 -7.285156 8.75 -7.734375 C 8.300781 -8.191406 7.6875 -8.421875 6.90625 -8.421875 C 6.0625 -8.410156 5.375 -8.140625 4.84375 -7.609375 C 4.3125 -7.085938 4.007812 -6.40625 3.9375 -5.5625 L 3.9375 0 L 1.671875 0 L 1.671875 -10.46875 L 3.9375 -10.46875 L 3.9375 -8.453125 C 4.644531 -9.847656 5.929688 -10.546875 7.796875 -10.546875 Z M 7.796875 -10.546875 "/></g></g></g><g fill="#ffffff" fill-opacity="1"><g transform="translate(915.566202, 112.01116)"><g><path d="M 7.6875 -10.546875 C 9.175781 -10.546875 10.378906 -10.050781 11.296875 -9.0625 C 12.222656 -8.070312 12.6875 -6.78125 12.6875 -5.1875 C 12.6875 -3.613281 12.234375 -2.34375 11.328125 -1.375 C 10.421875 -0.40625 9.222656 0.078125 7.734375 0.078125 C 6.054688 0.078125 4.820312 -0.550781 4.03125 -1.8125 L 4.03125 3.8125 L 1.765625 3.8125 L 1.765625 -10.46875 L 4.03125 -10.46875 L 4.03125 -8.65625 C 4.820312 -9.914062 6.039062 -10.546875 7.6875 -10.546875 Z M 4.921875 -2.796875 C 5.523438 -2.160156 6.289062 -1.84375 7.21875 -1.84375 C 8.144531 -1.84375 8.90625 -2.160156 9.5 -2.796875 C 10.101562 -3.429688 10.40625 -4.253906 10.40625 -5.265625 C 10.40625 -6.253906 10.101562 -7.066406 9.5 -7.703125 C 8.90625 -8.335938 8.144531 -8.65625 7.21875 -8.65625 C 6.289062 -8.65625 5.523438 -8.335938 4.921875 -7.703125 C 4.328125 -7.066406 4.03125 -6.253906 4.03125 -5.265625 C 4.03125 -4.253906 4.328125 -3.429688 4.921875 -2.796875 Z M 4.921875 -2.796875 "/></g></g></g><g fill="#ffffff" fill-opacity="1"><g transform="translate(927.597818, 112.01116)"><g><path d="M 7.953125 0 L 7.953125 -1.28125 C 7.203125 -0.363281 6.046875 0.09375 4.484375 0.09375 C 3.367188 0.09375 2.476562 -0.207031 1.8125 -0.8125 C 1.144531 -1.425781 0.8125 -2.203125 0.8125 -3.140625 C 0.8125 -4.097656 1.15625 -4.859375 1.84375 -5.421875 C 2.539062 -5.992188 3.515625 -6.285156 4.765625 -6.296875 L 7.921875 -6.296875 L 7.921875 -6.609375 C 7.921875 -7.273438 7.707031 -7.789062 7.28125 -8.15625 C 6.863281 -8.53125 6.242188 -8.71875 5.421875 -8.71875 C 4.421875 -8.71875 3.394531 -8.363281 2.34375 -7.65625 L 1.421875 -9.21875 C 2.210938 -9.695312 2.925781 -10.035156 3.5625 -10.234375 C 4.207031 -10.441406 4.992188 -10.546875 5.921875 -10.546875 C 7.253906 -10.546875 8.285156 -10.21875 9.015625 -9.5625 C 9.753906 -8.914062 10.132812 -8.015625 10.15625 -6.859375 L 10.171875 0 Z M 4.953125 -1.6875 C 5.753906 -1.6875 6.429688 -1.875 6.984375 -2.25 C 7.546875 -2.625 7.859375 -3.097656 7.921875 -3.671875 L 7.921875 -4.640625 L 5.09375 -4.640625 C 4.34375 -4.640625 3.796875 -4.53125 3.453125 -4.3125 C 3.109375 -4.101562 2.9375 -3.75 2.9375 -3.25 C 2.9375 -2.769531 3.113281 -2.390625 3.46875 -2.109375 C 3.832031 -1.828125 4.328125 -1.6875 4.953125 -1.6875 Z M 4.953125 -1.6875 "/></g></g></g><g fill="#ffffff" fill-opacity="1"><g transform="translate(937.781342, 112.01116)"><g/></g></g><g fill="#ffffff" fill-opacity="1"><g transform="translate(941.516202, 112.01116)"><g><path d="M 1.8125 -13.765625 L 7.796875 -13.765625 C 9.222656 -13.765625 10.347656 -13.457031 11.171875 -12.84375 C 11.992188 -12.238281 12.40625 -11.398438 12.40625 -10.328125 C 12.40625 -9.554688 12.1875 -8.894531 11.75 -8.34375 C 11.320312 -7.800781 10.738281 -7.441406 10 -7.265625 C 10.914062 -7.097656 11.632812 -6.707031 12.15625 -6.09375 C 12.675781 -5.476562 12.9375 -4.707031 12.9375 -3.78125 C 12.9375 -2.59375 12.488281 -1.664062 11.59375 -1 C 10.707031 -0.332031 9.484375 0 7.921875 0 L 1.8125 0 Z M 4.125 -11.703125 L 4.125 -8.0625 L 7.671875 -8.0625 C 8.410156 -8.0625 8.988281 -8.222656 9.40625 -8.546875 C 9.820312 -8.878906 10.03125 -9.332031 10.03125 -9.90625 C 10.03125 -10.488281 9.820312 -10.929688 9.40625 -11.234375 C 9 -11.546875 8.421875 -11.703125 7.671875 -11.703125 Z M 4.125 -6.015625 L 4.125 -2.0625 L 7.671875 -2.0625 C 8.585938 -2.0625 9.296875 -2.234375 9.796875 -2.578125 C 10.304688 -2.929688 10.5625 -3.429688 10.5625 -4.078125 C 10.5625 -4.679688 10.304688 -5.15625 9.796875 -5.5 C 9.285156 -5.84375 8.578125 -6.015625 7.671875 -6.015625 Z M 4.125 -6.015625 "/></g></g></g><g fill="#ffffff" fill-opacity="1"><g transform="translate(954.058992, 112.01116)"><g><path d="M 7.953125 0 L 7.953125 -1.28125 C 7.203125 -0.363281 6.046875 0.09375 4.484375 0.09375 C 3.367188 0.09375 2.476562 -0.207031 1.8125 -0.8125 C 1.144531 -1.425781 0.8125 -2.203125 0.8125 -3.140625 C 0.8125 -4.097656 1.15625 -4.859375 1.84375 -5.421875 C 2.539062 -5.992188 3.515625 -6.285156 4.765625 -6.296875 L 7.921875 -6.296875 L 7.921875 -6.609375 C 7.921875 -7.273438 7.707031 -7.789062 7.28125 -8.15625 C 6.863281 -8.53125 6.242188 -8.71875 5.421875 -8.71875 C 4.421875 -8.71875 3.394531 -8.363281 2.34375 -7.65625 L 1.421875 -9.21875 C 2.210938 -9.695312 2.925781 -10.035156 3.5625 -10.234375 C 4.207031 -10.441406 4.992188 -10.546875 5.921875 -10.546875 C 7.253906 -10.546875 8.285156 -10.21875 9.015625 -9.5625 C 9.753906 -8.914062 10.132812 -8.015625 10.15625 -6.859375 L 10.171875 0 Z M 4.953125 -1.6875 C 5.753906 -1.6875 6.429688 -1.875 6.984375 -2.25 C 7.546875 -2.625 7.859375 -3.097656 7.921875 -3.671875 L 7.921875 -4.640625 L 5.09375 -4.640625 C 4.34375 -4.640625 3.796875 -4.53125 3.453125 -4.3125 C 3.109375 -4.101562 2.9375 -3.75 2.9375 -3.25 C 2.9375 -2.769531 3.113281 -2.390625 3.46875 -2.109375 C 3.832031 -1.828125 4.328125 -1.6875 4.953125 -1.6875 Z M 4.953125 -1.6875 "/></g></g></g><g fill="#ffffff" fill-opacity="1"><g transform="translate(964.242517, 112.01116)"><g><path d="M 7.015625 -2.40625 L 7.59375 -0.671875 C 6.726562 -0.160156 5.867188 0.09375 5.015625 0.09375 C 4.160156 0.09375 3.457031 -0.160156 2.90625 -0.671875 C 2.351562 -1.179688 2.078125 -1.941406 2.078125 -2.953125 L 2.078125 -8.375 L 0.609375 -8.375 L 0.609375 -10.078125 L 2.078125 -10.078125 L 2.078125 -12.9375 L 4.328125 -12.9375 L 4.328125 -10.078125 L 7.421875 -10.078125 L 7.421875 -8.375 L 4.328125 -8.375 L 4.328125 -3.359375 C 4.328125 -2.835938 4.414062 -2.472656 4.59375 -2.265625 C 4.78125 -2.054688 5.066406 -1.953125 5.453125 -1.953125 C 5.867188 -1.953125 6.390625 -2.101562 7.015625 -2.40625 Z M 7.015625 -2.40625 "/></g></g></g><g fill="#ffffff" fill-opacity="1"><g transform="translate(970.906805, 112.01116)"><g><path d="M 7.953125 0 L 7.953125 -1.28125 C 7.203125 -0.363281 6.046875 0.09375 4.484375 0.09375 C 3.367188 0.09375 2.476562 -0.207031 1.8125 -0.8125 C 1.144531 -1.425781 0.8125 -2.203125 0.8125 -3.140625 C 0.8125 -4.097656 1.15625 -4.859375 1.84375 -5.421875 C 2.539062 -5.992188 3.515625 -6.285156 4.765625 -6.296875 L 7.921875 -6.296875 L 7.921875 -6.609375 C 7.921875 -7.273438 7.707031 -7.789062 7.28125 -8.15625 C 6.863281 -8.53125 6.242188 -8.71875 5.421875 -8.71875 C 4.421875 -8.71875 3.394531 -8.363281 2.34375 -7.65625 L 1.421875 -9.21875 C 2.210938 -9.695312 2.925781 -10.035156 3.5625 -10.234375 C 4.207031 -10.441406 4.992188 -10.546875 5.921875 -10.546875 C 7.253906 -10.546875 8.285156 -10.21875 9.015625 -9.5625 C 9.753906 -8.914062 10.132812 -8.015625 10.15625 -6.859375 L 10.171875 0 Z M 4.953125 -1.6875 C 5.753906 -1.6875 6.429688 -1.875 6.984375 -2.25 C 7.546875 -2.625 7.859375 -3.097656 7.921875 -3.671875 L 7.921875 -4.640625 L 5.09375 -4.640625 C 4.34375 -4.640625 3.796875 -4.53125 3.453125 -4.3125 C 3.109375 -4.101562 2.9375 -3.75 2.9375 -3.25 C 2.9375 -2.769531 3.113281 -2.390625 3.46875 -2.109375 C 3.832031 -1.828125 4.328125 -1.6875 4.953125 -1.6875 Z M 4.953125 -1.6875 "/></g></g></g><g fill="#ffffff" fill-opacity="1"><g transform="translate(981.090329, 112.01116)"><g><path d="M 4.796875 -10.5625 C 6.242188 -10.5625 7.460938 -10.207031 8.453125 -9.5 L 7.625 -7.828125 C 6.632812 -8.441406 5.632812 -8.75 4.625 -8.75 C 3.601562 -8.75 3.09375 -8.40625 3.09375 -7.71875 C 3.09375 -7.375 3.28125 -7.085938 3.65625 -6.859375 C 4.039062 -6.640625 4.503906 -6.453125 5.046875 -6.296875 C 5.585938 -6.148438 6.128906 -5.972656 6.671875 -5.765625 C 7.222656 -5.566406 7.6875 -5.238281 8.0625 -4.78125 C 8.445312 -4.320312 8.640625 -3.738281 8.640625 -3.03125 C 8.640625 -2.019531 8.253906 -1.25 7.484375 -0.71875 C 6.710938 -0.1875 5.757812 0.078125 4.625 0.078125 C 3.832031 0.078125 3.0625 -0.046875 2.3125 -0.296875 C 1.5625 -0.554688 0.925781 -0.914062 0.40625 -1.375 L 1.21875 -2.984375 C 1.664062 -2.597656 2.210938 -2.285156 2.859375 -2.046875 C 3.515625 -1.804688 4.132812 -1.6875 4.71875 -1.6875 C 5.226562 -1.6875 5.640625 -1.78125 5.953125 -1.96875 C 6.273438 -2.15625 6.4375 -2.4375 6.4375 -2.8125 C 6.4375 -3.207031 6.242188 -3.519531 5.859375 -3.75 C 5.484375 -3.988281 5.023438 -4.179688 4.484375 -4.328125 C 3.941406 -4.472656 3.398438 -4.644531 2.859375 -4.84375 C 2.328125 -5.039062 1.875 -5.363281 1.5 -5.8125 C 1.125 -6.257812 0.9375 -6.832031 0.9375 -7.53125 C 0.9375 -8.53125 1.304688 -9.285156 2.046875 -9.796875 C 2.796875 -10.304688 3.710938 -10.5625 4.796875 -10.5625 Z M 4.796875 -10.5625 "/></g></g></g><path fill="#000000" d="M 802.53125 196.136719 L 802.53125 165.042969 L 665.3125 165.042969 L 665.3125 121.804688 L 996.421875 121.804688 L 996.421875 196.136719 L 802.53125 196.136719 " fill-opacity="1" fill-rule="nonzero"/><g fill="#ffffff" fill-opacity="1"><g transform="translate(674.243775, 154.135111)"><g><path d="M 2.46875 -18.828125 L 10.1875 -18.828125 C 13 -18.828125 15.320312 -17.9375 17.15625 -16.15625 C 19 -14.382812 19.921875 -12.132812 19.921875 -9.40625 C 19.921875 -6.6875 19 -4.4375 17.15625 -2.65625 C 15.3125 -0.882812 12.960938 0 10.109375 0 L 2.46875 0 Z M 5.640625 -15.96875 L 5.640625 -2.84375 L 10.265625 -2.84375 C 12.117188 -2.84375 13.65625 -3.457031 14.875 -4.6875 C 16.101562 -5.914062 16.71875 -7.476562 16.71875 -9.375 C 16.71875 -11.28125 16.085938 -12.851562 14.828125 -14.09375 C 13.566406 -15.34375 12.003906 -15.96875 10.140625 -15.96875 Z M 5.640625 -15.96875 "/></g></g></g><g fill="#ffffff" fill-opacity="1"><g transform="translate(693.250143, 154.135111)"><g><path d="M 2.515625 -19.75 C 2.859375 -20.101562 3.289062 -20.28125 3.8125 -20.28125 C 4.332031 -20.28125 4.765625 -20.101562 5.109375 -19.75 C 5.453125 -19.40625 5.625 -18.953125 5.625 -18.390625 C 5.625 -17.859375 5.453125 -17.414062 5.109375 -17.0625 C 4.765625 -16.707031 4.332031 -16.53125 3.8125 -16.53125 C 3.289062 -16.53125 2.859375 -16.707031 2.515625 -17.0625 C 2.179688 -17.414062 2.015625 -17.859375 2.015625 -18.390625 C 2.015625 -18.953125 2.179688 -19.40625 2.515625 -19.75 Z M 5.34375 0 L 2.28125 0 L 2.28125 -14.3125 L 5.34375 -14.3125 Z M 5.34375 0 "/></g></g></g><g fill="#ffffff" fill-opacity="1"><g transform="translate(699.056285, 154.135111)"><g><path d="M 6.5625 -14.4375 C 8.53125 -14.4375 10.195312 -13.953125 11.5625 -12.984375 L 10.4375 -10.703125 C 9.070312 -11.546875 7.695312 -11.96875 6.3125 -11.96875 C 4.914062 -11.96875 4.21875 -11.492188 4.21875 -10.546875 C 4.21875 -10.078125 4.476562 -9.6875 5 -9.375 C 5.519531 -9.070312 6.148438 -8.816406 6.890625 -8.609375 C 7.640625 -8.410156 8.382812 -8.171875 9.125 -7.890625 C 9.875 -7.609375 10.507812 -7.15625 11.03125 -6.53125 C 11.550781 -5.90625 11.8125 -5.109375 11.8125 -4.140625 C 11.8125 -2.765625 11.285156 -1.710938 10.234375 -0.984375 C 9.179688 -0.253906 7.875 0.109375 6.3125 0.109375 C 5.238281 0.109375 4.1875 -0.0625 3.15625 -0.40625 C 2.125 -0.757812 1.257812 -1.25 0.5625 -1.875 L 1.671875 -4.09375 C 2.273438 -3.550781 3.019531 -3.117188 3.90625 -2.796875 C 4.800781 -2.472656 5.648438 -2.3125 6.453125 -2.3125 C 7.148438 -2.3125 7.710938 -2.4375 8.140625 -2.6875 C 8.578125 -2.9375 8.796875 -3.320312 8.796875 -3.84375 C 8.796875 -4.382812 8.535156 -4.816406 8.015625 -5.140625 C 7.492188 -5.460938 6.863281 -5.722656 6.125 -5.921875 C 5.394531 -6.117188 4.660156 -6.347656 3.921875 -6.609375 C 3.191406 -6.878906 2.570312 -7.320312 2.0625 -7.9375 C 1.550781 -8.5625 1.296875 -9.347656 1.296875 -10.296875 C 1.296875 -11.660156 1.800781 -12.691406 2.8125 -13.390625 C 3.820312 -14.085938 5.070312 -14.4375 6.5625 -14.4375 Z M 6.5625 -14.4375 "/></g></g></g><g fill="#ffffff" fill-opacity="1"><g transform="translate(709.862926, 154.135111)"><g><path d="M 7.9375 -6.5625 L 5.515625 -4 L 5.515625 0 L 2.421875 0 L 2.421875 -19.953125 L 5.515625 -19.953125 L 5.515625 -7.90625 L 11.828125 -14.3125 L 15.375 -14.3125 L 10.078125 -8.765625 L 15.78125 0 L 12.125 0 Z M 7.9375 -6.5625 "/></g></g></g><g fill="#ffffff" fill-opacity="1"><g transform="translate(724.030116, 154.135111)"><g><path d="M 8.421875 -14.40625 C 10.617188 -14.40625 12.40625 -13.738281 13.78125 -12.40625 C 15.164062 -11.070312 15.859375 -9.320312 15.859375 -7.15625 C 15.859375 -5 15.164062 -3.25 13.78125 -1.90625 C 12.40625 -0.5625 10.617188 0.109375 8.421875 0.109375 C 6.191406 0.109375 4.382812 -0.5625 3 -1.90625 C 1.625 -3.25 0.9375 -5 0.9375 -7.15625 C 0.9375 -9.320312 1.625 -11.070312 3 -12.40625 C 4.382812 -13.738281 6.191406 -14.40625 8.421875 -14.40625 Z M 8.421875 -11.75 C 7.128906 -11.75 6.070312 -11.316406 5.25 -10.453125 C 4.4375 -9.597656 4.03125 -8.488281 4.03125 -7.125 C 4.03125 -5.75 4.4375 -4.628906 5.25 -3.765625 C 6.070312 -2.898438 7.128906 -2.46875 8.421875 -2.46875 C 9.710938 -2.46875 10.757812 -2.898438 11.5625 -3.765625 C 12.363281 -4.628906 12.765625 -5.75 12.765625 -7.125 C 12.765625 -8.488281 12.359375 -9.597656 11.546875 -10.453125 C 10.734375 -11.316406 9.691406 -11.75 8.421875 -11.75 Z M 8.421875 -11.75 "/></g></g></g><g fill="#ffffff" fill-opacity="1"><g transform="translate(739.00384, 154.135111)"><g><path d="M 10.65625 -14.40625 C 12.320312 -14.40625 13.625 -13.914062 14.5625 -12.9375 C 15.5 -11.96875 15.96875 -10.625 15.96875 -8.90625 L 15.96875 0 L 12.875 0 L 12.875 -8.046875 C 12.875 -9.117188 12.566406 -9.960938 11.953125 -10.578125 C 11.347656 -11.203125 10.507812 -11.515625 9.4375 -11.515625 C 8.289062 -11.492188 7.351562 -11.125 6.625 -10.40625 C 5.90625 -9.6875 5.488281 -8.753906 5.375 -7.609375 L 5.375 0 L 2.28125 0 L 2.28125 -14.3125 L 5.375 -14.3125 L 5.375 -11.5625 C 6.34375 -13.457031 8.101562 -14.40625 10.65625 -14.40625 Z M 10.65625 -14.40625 "/></g></g></g><g fill="#ffffff" fill-opacity="1"><g transform="translate(760.106329, 154.135111)"><g><path d="M 7.75 -18.953125 C 9.539062 -18.953125 10.984375 -18.519531 12.078125 -17.65625 C 13.179688 -16.800781 13.734375 -15.65625 13.734375 -14.21875 C 13.734375 -12.570312 12.585938 -10.515625 10.296875 -8.046875 L 5.40625 -2.84375 L 14.59375 -2.84375 L 14.59375 0 L 1.203125 0 L 1.203125 -2.3125 L 8.140625 -9.765625 C 9.671875 -11.316406 10.4375 -12.648438 10.4375 -13.765625 C 10.4375 -14.515625 10.15625 -15.101562 9.59375 -15.53125 C 9.039062 -15.96875 8.269531 -16.1875 7.28125 -16.1875 C 5.582031 -16.1875 3.875 -15.398438 2.15625 -13.828125 L 0.890625 -16.265625 C 3.085938 -18.054688 5.375 -18.953125 7.75 -18.953125 Z M 7.75 -18.953125 "/></g></g></g><g fill="#ffffff" fill-opacity="1"><g transform="translate(774.085324, 154.135111)"><g><path d="M 9.296875 -18.90625 C 11.867188 -18.90625 13.84375 -18.082031 15.21875 -16.4375 C 16.601562 -14.800781 17.296875 -12.457031 17.296875 -9.40625 C 17.296875 -6.363281 16.601562 -4.019531 15.21875 -2.375 C 13.84375 -0.738281 11.867188 0.078125 9.296875 0.078125 C 6.722656 0.078125 4.742188 -0.738281 3.359375 -2.375 C 1.984375 -4.019531 1.296875 -6.363281 1.296875 -9.40625 C 1.296875 -12.457031 1.984375 -14.800781 3.359375 -16.4375 C 4.742188 -18.082031 6.722656 -18.90625 9.296875 -18.90625 Z M 9.296875 -16.40625 C 6.128906 -16.40625 4.546875 -14.070312 4.546875 -9.40625 C 4.546875 -4.75 6.128906 -2.421875 9.296875 -2.421875 C 12.453125 -2.421875 14.03125 -4.75 14.03125 -9.40625 C 14.03125 -14.070312 12.453125 -16.40625 9.296875 -16.40625 Z M 9.296875 -16.40625 "/></g></g></g><g fill="#ffffff" fill-opacity="1"><g transform="translate(790.833411, 154.135111)"><g><path d="M 2.34375 -17.375 C 3.238281 -18.375 4.457031 -18.875 6 -18.875 C 7.539062 -18.875 8.753906 -18.375 9.640625 -17.375 C 10.523438 -16.382812 10.96875 -15.019531 10.96875 -13.28125 C 10.96875 -11.53125 10.523438 -10.148438 9.640625 -9.140625 C 8.753906 -8.140625 7.539062 -7.640625 6 -7.640625 C 4.457031 -7.640625 3.238281 -8.140625 2.34375 -9.140625 C 1.457031 -10.148438 1.015625 -11.53125 1.015625 -13.28125 C 1.015625 -15.019531 1.457031 -16.382812 2.34375 -17.375 Z M 4.578125 0 L 18.421875 -18.828125 L 21.375 -18.828125 L 7.5625 0 Z M 8.15625 -16.0625 C 7.644531 -16.71875 6.921875 -17.046875 5.984375 -17.046875 C 5.054688 -17.046875 4.34375 -16.71875 3.84375 -16.0625 C 3.34375 -15.40625 3.09375 -14.476562 3.09375 -13.28125 C 3.09375 -12.0625 3.34375 -11.117188 3.84375 -10.453125 C 4.34375 -9.796875 5.054688 -9.46875 5.984375 -9.46875 C 6.921875 -9.46875 7.644531 -9.800781 8.15625 -10.46875 C 8.664062 -11.144531 8.921875 -12.082031 8.921875 -13.28125 C 8.921875 -14.476562 8.664062 -15.40625 8.15625 -16.0625 Z M 16.515625 -9.65625 C 17.410156 -10.65625 18.628906 -11.15625 20.171875 -11.15625 C 21.710938 -11.15625 22.925781 -10.65625 23.8125 -9.65625 C 24.695312 -8.664062 25.140625 -7.300781 25.140625 -5.5625 C 25.140625 -3.8125 24.695312 -2.4375 23.8125 -1.4375 C 22.925781 -0.445312 21.710938 0.046875 20.171875 0.046875 C 18.628906 0.046875 17.410156 -0.445312 16.515625 -1.4375 C 15.628906 -2.4375 15.1875 -3.8125 15.1875 -5.5625 C 15.1875 -7.300781 15.628906 -8.664062 16.515625 -9.65625 Z M 22.328125 -8.359375 C 21.816406 -9.023438 21.09375 -9.359375 20.15625 -9.359375 C 19.226562 -9.359375 18.515625 -9.023438 18.015625 -8.359375 C 17.515625 -7.703125 17.265625 -6.769531 17.265625 -5.5625 C 17.265625 -4.34375 17.515625 -3.40625 18.015625 -2.75 C 18.515625 -2.101562 19.226562 -1.78125 20.15625 -1.78125 C 21.09375 -1.78125 21.816406 -2.109375 22.328125 -2.765625 C 22.835938 -3.429688 23.09375 -4.363281 23.09375 -5.5625 C 23.09375 -6.769531 22.835938 -7.703125 22.328125 -8.359375 Z M 22.328125 -8.359375 "/></g></g></g><g fill="#ffffff" fill-opacity="1"><g transform="translate(815.16289, 154.135111)"><g/></g></g><g fill="#ffffff" fill-opacity="1"><g transform="translate(820.270051, 154.135111)"><g><path d="M 18.46875 -18.828125 L 18.46875 -7.796875 C 18.46875 -5.335938 17.742188 -3.398438 16.296875 -1.984375 C 14.847656 -0.566406 12.847656 0.140625 10.296875 0.140625 C 7.753906 0.140625 5.75 -0.566406 4.28125 -1.984375 C 2.820312 -3.398438 2.09375 -5.335938 2.09375 -7.796875 L 2.09375 -18.828125 L 5.265625 -18.828125 L 5.265625 -7.796875 C 5.265625 -6.222656 5.71875 -4.984375 6.625 -4.078125 C 7.53125 -3.171875 8.765625 -2.71875 10.328125 -2.71875 C 11.867188 -2.71875 13.082031 -3.164062 13.96875 -4.0625 C 14.851562 -4.957031 15.296875 -6.203125 15.296875 -7.796875 L 15.296875 -18.828125 Z M 18.46875 -18.828125 "/></g></g></g><g fill="#ffffff" fill-opacity="1"><g transform="translate(838.980697, 154.135111)"><g><path d="M 10.65625 -14.40625 C 12.320312 -14.40625 13.625 -13.914062 14.5625 -12.9375 C 15.5 -11.96875 15.96875 -10.625 15.96875 -8.90625 L 15.96875 0 L 12.875 0 L 12.875 -8.046875 C 12.875 -9.117188 12.566406 -9.960938 11.953125 -10.578125 C 11.347656 -11.203125 10.507812 -11.515625 9.4375 -11.515625 C 8.289062 -11.492188 7.351562 -11.125 6.625 -10.40625 C 5.90625 -9.6875 5.488281 -8.753906 5.375 -7.609375 L 5.375 0 L 2.28125 0 L 2.28125 -14.3125 L 5.375 -14.3125 L 5.375 -11.5625 C 6.34375 -13.457031 8.101562 -14.40625 10.65625 -14.40625 Z M 10.65625 -14.40625 "/></g></g></g><g fill="#ffffff" fill-opacity="1"><g transform="translate(854.976015, 154.135111)"><g><path d="M 9.59375 -3.28125 L 10.375 -0.921875 C 9.195312 -0.210938 8.023438 0.140625 6.859375 0.140625 C 5.691406 0.140625 4.726562 -0.207031 3.96875 -0.90625 C 3.21875 -1.613281 2.84375 -2.65625 2.84375 -4.03125 L 2.84375 -11.453125 L 0.828125 -11.453125 L 0.828125 -13.765625 L 2.84375 -13.765625 L 2.84375 -17.6875 L 5.921875 -17.6875 L 5.921875 -13.765625 L 10.140625 -13.765625 L 10.140625 -11.453125 L 5.921875 -11.453125 L 5.921875 -4.59375 C 5.921875 -3.875 6.046875 -3.367188 6.296875 -3.078125 C 6.546875 -2.796875 6.929688 -2.65625 7.453125 -2.65625 C 8.023438 -2.65625 8.738281 -2.863281 9.59375 -3.28125 Z M 9.59375 -3.28125 "/></g></g></g><g fill="#ffffff" fill-opacity="1"><g transform="translate(864.088946, 154.135111)"><g><path d="M 15.28125 -14.3125 L 15.28125 0 L 12.1875 0 L 12.1875 -2.796875 C 11.25 -0.898438 9.546875 0.0664062 7.078125 0.109375 C 5.441406 0.109375 4.15625 -0.378906 3.21875 -1.359375 C 2.289062 -2.347656 1.828125 -3.695312 1.828125 -5.40625 L 1.828125 -14.3125 L 4.921875 -14.3125 L 4.921875 -6.265625 C 4.921875 -5.191406 5.21875 -4.34375 5.8125 -3.71875 C 6.40625 -3.101562 7.21875 -2.796875 8.25 -2.796875 C 9.457031 -2.816406 10.414062 -3.242188 11.125 -4.078125 C 11.832031 -4.910156 12.1875 -5.972656 12.1875 -7.265625 L 12.1875 -14.3125 Z M 15.28125 -14.3125 "/></g></g></g><g fill="#ffffff" fill-opacity="1"><g transform="translate(879.815428, 154.135111)"><g><path d="M 7.9375 -6.5625 L 5.515625 -4 L 5.515625 0 L 2.421875 0 L 2.421875 -19.953125 L 5.515625 -19.953125 L 5.515625 -7.90625 L 11.828125 -14.3125 L 15.375 -14.3125 L 10.078125 -8.765625 L 15.78125 0 L 12.125 0 Z M 7.9375 -6.5625 "/></g></g></g><g fill="#ffffff" fill-opacity="1"><g transform="translate(893.98262, 154.135111)"><g/></g></g><g fill="#ffffff" fill-opacity="1"><g transform="translate(899.08977, 154.135111)"><g><path d="M 8.65625 -18.953125 C 11.09375 -18.953125 13.289062 -18.304688 15.25 -17.015625 L 13.921875 -14.21875 C 12.003906 -15.382812 10.171875 -15.96875 8.421875 -15.96875 C 7.460938 -15.96875 6.707031 -15.796875 6.15625 -15.453125 C 5.613281 -15.117188 5.34375 -14.632812 5.34375 -14 C 5.34375 -13.375 5.59375 -12.84375 6.09375 -12.40625 C 6.601562 -11.96875 7.234375 -11.644531 7.984375 -11.4375 C 8.734375 -11.226562 9.546875 -10.96875 10.421875 -10.65625 C 11.304688 -10.34375 12.125 -10.007812 12.875 -9.65625 C 13.632812 -9.3125 14.257812 -8.765625 14.75 -8.015625 C 15.238281 -7.273438 15.484375 -6.378906 15.484375 -5.328125 C 15.484375 -3.671875 14.820312 -2.347656 13.5 -1.359375 C 12.1875 -0.378906 10.484375 0.109375 8.390625 0.109375 C 6.953125 0.109375 5.5625 -0.15625 4.21875 -0.6875 C 2.875 -1.226562 1.703125 -1.957031 0.703125 -2.875 L 2.078125 -5.625 C 3.023438 -4.738281 4.066406 -4.054688 5.203125 -3.578125 C 6.335938 -3.109375 7.414062 -2.875 8.4375 -2.875 C 9.550781 -2.875 10.414062 -3.078125 11.03125 -3.484375 C 11.65625 -3.890625 11.96875 -4.445312 11.96875 -5.15625 C 11.96875 -5.800781 11.710938 -6.34375 11.203125 -6.78125 C 10.703125 -7.226562 10.078125 -7.550781 9.328125 -7.75 C 8.578125 -7.957031 7.757812 -8.207031 6.875 -8.5 C 6 -8.800781 5.1875 -9.117188 4.4375 -9.453125 C 3.6875 -9.785156 3.054688 -10.316406 2.546875 -11.046875 C 2.046875 -11.785156 1.796875 -12.675781 1.796875 -13.71875 C 1.796875 -15.3125 2.421875 -16.582031 3.671875 -17.53125 C 4.929688 -18.476562 6.59375 -18.953125 8.65625 -18.953125 Z M 8.65625 -18.953125 "/></g></g></g><g fill="#ffffff" fill-opacity="1"><g transform="translate(913.982823, 154.135111)"><g><path d="M 8.171875 -14.40625 C 10.628906 -14.40625 12.410156 -13.664062 13.515625 -12.1875 C 14.617188 -10.707031 15.070312 -8.632812 14.875 -5.96875 L 4.0625 -5.96875 C 4.3125 -4.851562 4.828125 -3.976562 5.609375 -3.34375 C 6.398438 -2.707031 7.363281 -2.390625 8.5 -2.390625 C 10.113281 -2.390625 11.457031 -2.945312 12.53125 -4.0625 L 14.171875 -2.3125 C 12.703125 -0.695312 10.726562 0.109375 8.25 0.109375 C 6.050781 0.109375 4.28125 -0.554688 2.9375 -1.890625 C 1.601562 -3.234375 0.9375 -4.976562 0.9375 -7.125 C 0.9375 -9.28125 1.609375 -11.03125 2.953125 -12.375 C 4.296875 -13.71875 6.035156 -14.394531 8.171875 -14.40625 Z M 4 -8.234375 L 12.1875 -8.234375 C 12.125 -9.378906 11.734375 -10.28125 11.015625 -10.9375 C 10.304688 -11.601562 9.367188 -11.9375 8.203125 -11.9375 C 7.066406 -11.9375 6.128906 -11.601562 5.390625 -10.9375 C 4.648438 -10.28125 4.1875 -9.378906 4 -8.234375 Z M 4 -8.234375 "/></g></g></g><g fill="#ffffff" fill-opacity="1"><g transform="translate(927.961807, 154.135111)"><g><path d="M 20.953125 -14.40625 C 22.578125 -14.40625 23.851562 -13.910156 24.78125 -12.921875 C 25.71875 -11.941406 26.1875 -10.601562 26.1875 -8.90625 L 26.1875 0 L 23.09375 0 L 23.09375 -8.046875 C 23.09375 -9.140625 22.789062 -9.992188 22.1875 -10.609375 C 21.59375 -11.222656 20.765625 -11.53125 19.703125 -11.53125 C 18.503906 -11.5 17.550781 -11.066406 16.84375 -10.234375 C 16.132812 -9.398438 15.78125 -8.347656 15.78125 -7.078125 L 15.78125 0 L 12.6875 0 L 12.6875 -8.046875 C 12.6875 -9.140625 12.382812 -9.992188 11.78125 -10.609375 C 11.1875 -11.222656 10.367188 -11.53125 9.328125 -11.53125 C 8.109375 -11.5 7.140625 -11.066406 6.421875 -10.234375 C 5.703125 -9.398438 5.34375 -8.347656 5.34375 -7.078125 L 5.34375 0 L 2.28125 0 L 2.28125 -14.3125 L 5.34375 -14.3125 L 5.34375 -11.53125 C 6.300781 -13.445312 8.035156 -14.40625 10.546875 -14.40625 C 11.816406 -14.40625 12.875 -14.101562 13.71875 -13.5 C 14.570312 -12.90625 15.171875 -12.0625 15.515625 -10.96875 C 16.390625 -13.257812 18.203125 -14.40625 20.953125 -14.40625 Z M 20.953125 -14.40625 "/></g></g></g><g fill="#ffffff" fill-opacity="1"><g transform="translate(954.173187, 154.135111)"><g><path d="M 15.28125 -14.3125 L 15.28125 0 L 12.1875 0 L 12.1875 -2.796875 C 11.25 -0.898438 9.546875 0.0664062 7.078125 0.109375 C 5.441406 0.109375 4.15625 -0.378906 3.21875 -1.359375 C 2.289062 -2.347656 1.828125 -3.695312 1.828125 -5.40625 L 1.828125 -14.3125 L 4.921875 -14.3125 L 4.921875 -6.265625 C 4.921875 -5.191406 5.21875 -4.34375 5.8125 -3.71875 C 6.40625 -3.101562 7.21875 -2.796875 8.25 -2.796875 C 9.457031 -2.816406 10.414062 -3.242188 11.125 -4.078125 C 11.832031 -4.910156 12.1875 -5.972656 12.1875 -7.265625 L 12.1875 -14.3125 Z M 15.28125 -14.3125 "/></g></g></g><g fill="#ffffff" fill-opacity="1"><g transform="translate(969.899669, 154.135111)"><g><path d="M 10.859375 0 L 10.859375 -1.75 C 9.835938 -0.488281 8.257812 0.140625 6.125 0.140625 C 4.601562 0.140625 3.382812 -0.273438 2.46875 -1.109375 C 1.5625 -1.941406 1.109375 -3.003906 1.109375 -4.296875 C 1.109375 -5.609375 1.582031 -6.648438 2.53125 -7.421875 C 3.476562 -8.191406 4.800781 -8.585938 6.5 -8.609375 L 10.84375 -8.609375 L 10.84375 -9.03125 C 10.84375 -9.945312 10.550781 -10.65625 9.96875 -11.15625 C 9.382812 -11.65625 8.535156 -11.90625 7.421875 -11.90625 C 6.035156 -11.90625 4.628906 -11.421875 3.203125 -10.453125 L 1.9375 -12.609375 C 3.03125 -13.253906 4.007812 -13.710938 4.875 -13.984375 C 5.75 -14.265625 6.820312 -14.40625 8.09375 -14.40625 C 9.925781 -14.40625 11.34375 -13.960938 12.34375 -13.078125 C 13.34375 -12.191406 13.851562 -10.960938 13.875 -9.390625 L 13.90625 0 Z M 6.78125 -2.3125 C 7.875 -2.3125 8.800781 -2.566406 9.5625 -3.078125 C 10.320312 -3.585938 10.75 -4.238281 10.84375 -5.03125 L 10.84375 -6.34375 L 6.96875 -6.34375 C 5.945312 -6.34375 5.195312 -6.191406 4.71875 -5.890625 C 4.238281 -5.597656 4 -5.113281 4 -4.4375 C 4 -3.789062 4.242188 -3.273438 4.734375 -2.890625 C 5.234375 -2.503906 5.914062 -2.3125 6.78125 -2.3125 Z M 6.78125 -2.3125 "/></g></g></g><g fill="#ffffff" fill-opacity="1"><g transform="translate(811.461725, 185.230216)"><g><path d="M 15.359375 -9.25 L 18.125 -9.25 L 18.125 -2.3125 C 17.15625 -1.570312 16.007812 -0.976562 14.6875 -0.53125 C 13.375 -0.0820312 12.082031 0.140625 10.8125 0.140625 C 8.03125 0.140625 5.6875 -0.773438 3.78125 -2.609375 C 1.875 -4.453125 0.921875 -6.71875 0.921875 -9.40625 C 0.921875 -12.09375 1.882812 -14.347656 3.8125 -16.171875 C 5.75 -17.992188 8.144531 -18.90625 11 -18.90625 C 12.320312 -18.90625 13.625 -18.664062 14.90625 -18.1875 C 16.1875 -17.71875 17.296875 -17.078125 18.234375 -16.265625 L 16.4375 -13.921875 C 14.894531 -15.359375 13.082031 -16.078125 11 -16.078125 C 9.082031 -16.078125 7.457031 -15.429688 6.125 -14.140625 C 4.800781 -12.847656 4.140625 -11.269531 4.140625 -9.40625 C 4.140625 -7.53125 4.804688 -5.945312 6.140625 -4.65625 C 7.472656 -3.363281 9.101562 -2.71875 11.03125 -2.71875 C 12.476562 -2.71875 13.921875 -3.144531 15.359375 -4 Z M 15.359375 -9.25 "/></g></g></g><g fill="#ffffff" fill-opacity="1"><g transform="translate(829.769098, 185.230216)"><g><path d="M 10.859375 0 L 10.859375 -1.75 C 9.835938 -0.488281 8.257812 0.140625 6.125 0.140625 C 4.601562 0.140625 3.382812 -0.273438 2.46875 -1.109375 C 1.5625 -1.941406 1.109375 -3.003906 1.109375 -4.296875 C 1.109375 -5.609375 1.582031 -6.648438 2.53125 -7.421875 C 3.476562 -8.191406 4.800781 -8.585938 6.5 -8.609375 L 10.84375 -8.609375 L 10.84375 -9.03125 C 10.84375 -9.945312 10.550781 -10.65625 9.96875 -11.15625 C 9.382812 -11.65625 8.535156 -11.90625 7.421875 -11.90625 C 6.035156 -11.90625 4.628906 -11.421875 3.203125 -10.453125 L 1.9375 -12.609375 C 3.03125 -13.253906 4.007812 -13.710938 4.875 -13.984375 C 5.75 -14.265625 6.820312 -14.40625 8.09375 -14.40625 C 9.925781 -14.40625 11.34375 -13.960938 12.34375 -13.078125 C 13.34375 -12.191406 13.851562 -10.960938 13.875 -9.390625 L 13.90625 0 Z M 6.78125 -2.3125 C 7.875 -2.3125 8.800781 -2.566406 9.5625 -3.078125 C 10.320312 -3.585938 10.75 -4.238281 10.84375 -5.03125 L 10.84375 -6.34375 L 6.96875 -6.34375 C 5.945312 -6.34375 5.195312 -6.191406 4.71875 -5.890625 C 4.238281 -5.597656 4 -5.113281 4 -4.4375 C 4 -3.789062 4.242188 -3.273438 4.734375 -2.890625 C 5.234375 -2.503906 5.914062 -2.3125 6.78125 -2.3125 Z M 6.78125 -2.3125 "/></g></g></g><g fill="#ffffff" fill-opacity="1"><g transform="translate(843.694327, 185.230216)"><g><path d="M 15.921875 -19.953125 L 15.921875 0 L 12.828125 0 L 12.828125 -2.453125 C 11.765625 -0.722656 10.085938 0.140625 7.796875 0.140625 C 5.753906 0.140625 4.097656 -0.535156 2.828125 -1.890625 C 1.566406 -3.242188 0.9375 -5.015625 0.9375 -7.203125 C 0.9375 -9.359375 1.5625 -11.101562 2.8125 -12.4375 C 4.070312 -13.769531 5.71875 -14.4375 7.75 -14.4375 C 10.039062 -14.4375 11.734375 -13.566406 12.828125 -11.828125 L 12.828125 -19.953125 Z M 5.28125 -3.75 C 6.09375 -2.882812 7.144531 -2.453125 8.4375 -2.453125 C 9.726562 -2.453125 10.78125 -2.882812 11.59375 -3.75 C 12.414062 -4.625 12.828125 -5.738281 12.828125 -7.09375 C 12.828125 -8.476562 12.414062 -9.609375 11.59375 -10.484375 C 10.78125 -11.367188 9.726562 -11.8125 8.4375 -11.8125 C 7.144531 -11.8125 6.09375 -11.367188 5.28125 -10.484375 C 4.46875 -9.609375 4.050781 -8.476562 4.03125 -7.09375 C 4.050781 -5.738281 4.46875 -4.625 5.28125 -3.75 Z M 5.28125 -3.75 "/></g></g></g><g fill="#ffffff" fill-opacity="1"><g transform="translate(860.200448, 185.230216)"><g><path d="M 15.1875 -14.3125 L 15.1875 -1.390625 C 15.1875 0.648438 14.515625 2.273438 13.171875 3.484375 C 11.828125 4.691406 10.023438 5.296875 7.765625 5.296875 C 5.648438 5.296875 3.671875 4.671875 1.828125 3.421875 L 3.140625 1.1875 C 4.546875 2.226562 6.046875 2.75 7.640625 2.75 C 9.003906 2.75 10.09375 2.378906 10.90625 1.640625 C 11.71875 0.898438 12.125 -0.0820312 12.125 -1.3125 L 12.125 -3.125 C 11.125 -1.507812 9.546875 -0.703125 7.390625 -0.703125 C 5.453125 -0.703125 3.890625 -1.335938 2.703125 -2.609375 C 1.523438 -3.878906 0.9375 -5.546875 0.9375 -7.609375 C 0.9375 -9.640625 1.519531 -11.273438 2.6875 -12.515625 C 3.851562 -13.765625 5.382812 -14.394531 7.28125 -14.40625 C 9.46875 -14.425781 11.082031 -13.625 12.125 -12 L 12.125 -14.3125 Z M 8.015625 -3.125 C 9.210938 -3.125 10.195312 -3.535156 10.96875 -4.359375 C 11.738281 -5.179688 12.125 -6.238281 12.125 -7.53125 C 12.125 -8.820312 11.742188 -9.875 10.984375 -10.6875 C 10.222656 -11.5 9.234375 -11.90625 8.015625 -11.90625 C 6.796875 -11.90625 5.800781 -11.5 5.03125 -10.6875 C 4.257812 -9.875 3.863281 -8.820312 3.84375 -7.53125 C 3.863281 -6.238281 4.253906 -5.179688 5.015625 -4.359375 C 5.773438 -3.535156 6.773438 -3.125 8.015625 -3.125 Z M 8.015625 -3.125 "/></g></g></g><g fill="#ffffff" fill-opacity="1"><g transform="translate(875.577433, 185.230216)"><g><path d="M 8.171875 -14.40625 C 10.628906 -14.40625 12.410156 -13.664062 13.515625 -12.1875 C 14.617188 -10.707031 15.070312 -8.632812 14.875 -5.96875 L 4.0625 -5.96875 C 4.3125 -4.851562 4.828125 -3.976562 5.609375 -3.34375 C 6.398438 -2.707031 7.363281 -2.390625 8.5 -2.390625 C 10.113281 -2.390625 11.457031 -2.945312 12.53125 -4.0625 L 14.171875 -2.3125 C 12.703125 -0.695312 10.726562 0.109375 8.25 0.109375 C 6.050781 0.109375 4.28125 -0.554688 2.9375 -1.890625 C 1.601562 -3.234375 0.9375 -4.976562 0.9375 -7.125 C 0.9375 -9.28125 1.609375 -11.03125 2.953125 -12.375 C 4.296875 -13.71875 6.035156 -14.394531 8.171875 -14.40625 Z M 4 -8.234375 L 12.1875 -8.234375 C 12.125 -9.378906 11.734375 -10.28125 11.015625 -10.9375 C 10.304688 -11.601562 9.367188 -11.9375 8.203125 -11.9375 C 7.066406 -11.9375 6.128906 -11.601562 5.390625 -10.9375 C 4.648438 -10.28125 4.1875 -9.378906 4 -8.234375 Z M 4 -8.234375 "/></g></g></g><g fill="#ffffff" fill-opacity="1"><g transform="translate(889.556428, 185.230216)"><g><path d="M 9.59375 -3.28125 L 10.375 -0.921875 C 9.195312 -0.210938 8.023438 0.140625 6.859375 0.140625 C 5.691406 0.140625 4.726562 -0.207031 3.96875 -0.90625 C 3.21875 -1.613281 2.84375 -2.65625 2.84375 -4.03125 L 2.84375 -11.453125 L 0.828125 -11.453125 L 0.828125 -13.765625 L 2.84375 -13.765625 L 2.84375 -17.6875 L 5.921875 -17.6875 L 5.921875 -13.765625 L 10.140625 -13.765625 L 10.140625 -11.453125 L 5.921875 -11.453125 L 5.921875 -4.59375 C 5.921875 -3.875 6.046875 -3.367188 6.296875 -3.078125 C 6.546875 -2.796875 6.929688 -2.65625 7.453125 -2.65625 C 8.023438 -2.65625 8.738281 -2.863281 9.59375 -3.28125 Z M 9.59375 -3.28125 "/></g></g></g><g fill="#ffffff" fill-opacity="1"><g transform="translate(898.669358, 185.230216)"><g/></g></g><g fill="#ffffff" fill-opacity="1"><g transform="translate(903.776519, 185.230216)"><g><path d="M 2.46875 -18.828125 L 9.96875 -18.828125 C 12.34375 -18.828125 14.175781 -18.265625 15.46875 -17.140625 C 16.769531 -16.023438 17.421875 -14.441406 17.421875 -12.390625 C 17.421875 -10.265625 16.769531 -8.613281 15.46875 -7.4375 C 14.175781 -6.257812 12.34375 -5.671875 9.96875 -5.671875 L 5.640625 -5.671875 L 5.640625 0 L 2.46875 0 Z M 5.640625 -15.96875 L 5.640625 -8.53125 L 9.84375 -8.53125 C 12.875 -8.53125 14.390625 -9.789062 14.390625 -12.3125 C 14.390625 -14.75 12.875 -15.96875 9.84375 -15.96875 Z M 5.640625 -15.96875 "/></g></g></g><g fill="#ffffff" fill-opacity="1"><g transform="translate(920.040685, 185.230216)"><g><path d="M 2.515625 -19.75 C 2.859375 -20.101562 3.289062 -20.28125 3.8125 -20.28125 C 4.332031 -20.28125 4.765625 -20.101562 5.109375 -19.75 C 5.453125 -19.40625 5.625 -18.953125 5.625 -18.390625 C 5.625 -17.859375 5.453125 -17.414062 5.109375 -17.0625 C 4.765625 -16.707031 4.332031 -16.53125 3.8125 -16.53125 C 3.289062 -16.53125 2.859375 -16.707031 2.515625 -17.0625 C 2.179688 -17.414062 2.015625 -17.859375 2.015625 -18.390625 C 2.015625 -18.953125 2.179688 -19.40625 2.515625 -19.75 Z M 5.34375 0 L 2.28125 0 L 2.28125 -14.3125 L 5.34375 -14.3125 Z M 5.34375 0 "/></g></g></g><g fill="#ffffff" fill-opacity="1"><g transform="translate(925.846829, 185.230216)"><g><path d="M 5.515625 0 L 2.421875 0 L 2.421875 -19.953125 L 5.515625 -19.953125 Z M 5.515625 0 "/></g></g></g><g fill="#ffffff" fill-opacity="1"><g transform="translate(931.948708, 185.230216)"><g><path d="M 2.515625 -19.75 C 2.859375 -20.101562 3.289062 -20.28125 3.8125 -20.28125 C 4.332031 -20.28125 4.765625 -20.101562 5.109375 -19.75 C 5.453125 -19.40625 5.625 -18.953125 5.625 -18.390625 C 5.625 -17.859375 5.453125 -17.414062 5.109375 -17.0625 C 4.765625 -16.707031 4.332031 -16.53125 3.8125 -16.53125 C 3.289062 -16.53125 2.859375 -16.707031 2.515625 -17.0625 C 2.179688 -17.414062 2.015625 -17.859375 2.015625 -18.390625 C 2.015625 -18.953125 2.179688 -19.40625 2.515625 -19.75 Z M 5.34375 0 L 2.28125 0 L 2.28125 -14.3125 L 5.34375 -14.3125 Z M 5.34375 0 "/></g></g></g><g fill="#ffffff" fill-opacity="1"><g transform="translate(937.754852, 185.230216)"><g><path d="M 10.8125 -14.40625 C 12.476562 -14.40625 13.78125 -13.914062 14.71875 -12.9375 C 15.664062 -11.96875 16.140625 -10.625 16.140625 -8.90625 L 16.140625 0 L 13.046875 0 L 13.046875 -8.046875 C 13.046875 -9.117188 12.738281 -9.960938 12.125 -10.578125 C 11.519531 -11.203125 10.675781 -11.515625 9.59375 -11.515625 C 8.34375 -11.492188 7.347656 -11.066406 6.609375 -10.234375 C 5.878906 -9.398438 5.515625 -8.335938 5.515625 -7.046875 L 5.515625 0 L 2.421875 0 L 2.421875 -19.953125 L 5.515625 -19.953125 L 5.515625 -11.515625 C 6.492188 -13.441406 8.257812 -14.40625 10.8125 -14.40625 Z M 10.8125 -14.40625 "/></g></g></g><g fill="#ffffff" fill-opacity="1"><g transform="translate(953.911481, 185.230216)"><g><path d="M 10.859375 0 L 10.859375 -1.75 C 9.835938 -0.488281 8.257812 0.140625 6.125 0.140625 C 4.601562 0.140625 3.382812 -0.273438 2.46875 -1.109375 C 1.5625 -1.941406 1.109375 -3.003906 1.109375 -4.296875 C 1.109375 -5.609375 1.582031 -6.648438 2.53125 -7.421875 C 3.476562 -8.191406 4.800781 -8.585938 6.5 -8.609375 L 10.84375 -8.609375 L 10.84375 -9.03125 C 10.84375 -9.945312 10.550781 -10.65625 9.96875 -11.15625 C 9.382812 -11.65625 8.535156 -11.90625 7.421875 -11.90625 C 6.035156 -11.90625 4.628906 -11.421875 3.203125 -10.453125 L 1.9375 -12.609375 C 3.03125 -13.253906 4.007812 -13.710938 4.875 -13.984375 C 5.75 -14.265625 6.820312 -14.40625 8.09375 -14.40625 C 9.925781 -14.40625 11.34375 -13.960938 12.34375 -13.078125 C 13.34375 -12.191406 13.851562 -10.960938 13.875 -9.390625 L 13.90625 0 Z M 6.78125 -2.3125 C 7.875 -2.3125 8.800781 -2.566406 9.5625 -3.078125 C 10.320312 -3.585938 10.75 -4.238281 10.84375 -5.03125 L 10.84375 -6.34375 L 6.96875 -6.34375 C 5.945312 -6.34375 5.195312 -6.191406 4.71875 -5.890625 C 4.238281 -5.597656 4 -5.113281 4 -4.4375 C 4 -3.789062 4.242188 -3.273438 4.734375 -2.890625 C 5.234375 -2.503906 5.914062 -2.3125 6.78125 -2.3125 Z M 6.78125 -2.3125 "/></g></g></g><g fill="#ffffff" fill-opacity="1"><g transform="translate(967.836713, 185.230216)"><g><path d="M 10.65625 -14.40625 C 12.320312 -14.40625 13.625 -13.914062 14.5625 -12.9375 C 15.5 -11.96875 15.96875 -10.625 15.96875 -8.90625 L 15.96875 0 L 12.875 0 L 12.875 -8.046875 C 12.875 -9.117188 12.566406 -9.960938 11.953125 -10.578125 C 11.347656 -11.203125 10.507812 -11.515625 9.4375 -11.515625 C 8.289062 -11.492188 7.351562 -11.125 6.625 -10.40625 C 5.90625 -9.6875 5.488281 -8.753906 5.375 -7.609375 L 5.375 0 L 2.28125 0 L 2.28125 -14.3125 L 5.375 -14.3125 L 5.375 -11.5625 C 6.34375 -13.457031 8.101562 -14.40625 10.65625 -14.40625 Z M 10.65625 -14.40625 "/></g></g></g><g clip-path="url(#11b31be753)"><path fill="#004aad" d="M 518.808594 171.78125 L 514.390625 171.78125 C 514.585938 172.257812 514.71875 172.769531 514.769531 173.3125 C 514.976562 173.4375 515.113281 173.660156 515.113281 173.917969 C 515.113281 174.214844 514.929688 174.46875 514.671875 174.574219 C 514.589844 174.609375 514.5 174.628906 514.402344 174.628906 C 514.289062 174.628906 514.179688 174.597656 514.082031 174.550781 C 513.851562 174.433594 513.695312 174.195312 513.695312 173.917969 C 513.695312 173.703125 513.796875 173.507812 513.949219 173.378906 C 513.894531 172.800781 513.734375 172.257812 513.488281 171.78125 L 507.554688 171.78125 C 507.3125 172.261719 507.148438 172.800781 507.09375 173.378906 C 507.25 173.507812 507.347656 173.703125 507.347656 173.917969 C 507.347656 174.195312 507.191406 174.433594 506.964844 174.550781 C 506.867188 174.597656 506.757812 174.628906 506.640625 174.628906 C 506.546875 174.628906 506.457031 174.609375 506.371094 174.574219 C 506.113281 174.46875 505.933594 174.214844 505.933594 173.917969 C 505.933594 173.660156 506.070312 173.4375 506.277344 173.3125 C 506.328125 172.769531 506.460938 172.253906 506.65625 171.78125 L 502.230469 171.78125 L 501.664062 189.910156 C 501.664062 190.535156 502.171875 191.042969 502.800781 191.042969 L 518.242188 191.042969 C 518.871094 191.042969 519.378906 190.535156 519.378906 189.910156 Z M 518.808594 171.78125 " fill-opacity="1" fill-rule="nonzero"/></g><path fill="#004aad" d="M 506.664062 174.105469 C 506.824219 174.105469 506.957031 173.980469 506.964844 173.820312 L 506.964844 173.789062 C 506.980469 171.535156 508.574219 169.699219 510.523438 169.699219 C 512.472656 169.699219 514.070312 171.535156 514.082031 173.792969 L 514.082031 173.820312 C 514.089844 173.980469 514.222656 174.105469 514.382812 174.105469 C 514.542969 174.105469 514.675781 173.980469 514.683594 173.820312 L 514.6875 173.792969 C 514.664062 171.203125 512.796875 169.09375 510.523438 169.09375 C 508.238281 169.09375 506.371094 171.203125 506.363281 173.820312 C 506.371094 173.980469 506.503906 174.105469 506.664062 174.105469 Z M 506.664062 174.105469 " fill-opacity="1" fill-rule="nonzero"/></svg>